<?xml version="1.0" encoding="UTF-8" standalone="no"?>
<!-- Created with Inkscape (http://www.inkscape.org/) -->

<svg
   width="20.165827cm"
   height="19.007179cm"
   viewBox="0 0 201.65826 190.07179"
   version="1.1"
   id="svg1"
   xml:space="preserve"
   inkscape:version="1.3-beta (cedbd6c, 2023-05-28)"
   sodipodi:docname="haqrae.svg"
   inkscape:export-filename="../../../../home/haqrae/Documents/logo.png"
   inkscape:export-xdpi="96"
   inkscape:export-ydpi="96"
   xmlns:inkscape="http://www.inkscape.org/namespaces/inkscape"
   xmlns:sodipodi="http://sodipodi.sourceforge.net/DTD/sodipodi-0.dtd"
   xmlns="http://www.w3.org/2000/svg"
   xmlns:svg="http://www.w3.org/2000/svg"><sodipodi:namedview
     id="namedview1"
     pagecolor="#ffffff"
     bordercolor="#000000"
     borderopacity="0.25"
     inkscape:showpageshadow="2"
     inkscape:pageopacity="0.0"
     inkscape:pagecheckerboard="0"
     inkscape:deskcolor="#d1d1d1"
     inkscape:document-units="mm"
     inkscape:zoom="0.25"
     inkscape:cx="506"
     inkscape:cy="318"
     inkscape:window-width="1920"
     inkscape:window-height="1012"
     inkscape:window-x="0"
     inkscape:window-y="0"
     inkscape:window-maximized="1"
     inkscape:current-layer="g34"
     inkscape:clip-to-page="true"
     showgrid="false" /><defs
     id="defs1" /><g
     inkscape:label="Layer 1"
     inkscape:groupmode="layer"
     id="layer1"
     transform="translate(4.3356838,-28.446325)"><path
       d="m 151.38444,105.22987 c -31.38168,26.49416 -43.7078,19.10789 -53.933635,47.0545 C 78.223529,103.52088 38.6605,140.38804 14.089016,109.45132 c -2.78327,4.00093 -6.9035652,8.41802 -18.4246998,2.68201 52.1508778,34.44765 52.4754278,34.68342 87.4468098,57.84246 8.301914,0.29776 16.557267,0.20483 27.987414,0.25373 7.48137,-5.04107 12.96712,-8.73491 18.33582,-12.34705 17.62461,-12.13796 35.69229,-23.59815 53.97655,-34.70795 4.0614,4.2696 18.91968,-6.79245 12.18478,-11.91711 -27.5993,18.0329 -55.44129,35.68957 -83.2037,53.46909 v 0 l -0.003,-0.007 c 4.05229,-26.85391 27.62825,-16.68003 80.75527,-56.03637 -73.35692,39.35634 -76.37219,28.99842 -88.4225,53.64324 5.15391,-29.6996 42.04076,-22.93659 70.38433,-55.71753 -25.93351,19.94491 -45.765,24.02044 -58.66481,31.25675 -8.51196,4.77489 -14.00584,10.926 -16.24327,23.92076 1.41127,-33.95008 26.90999,-28.23322 51.18653,-56.55676 z"
       style="display:inline;opacity:0.991014;fill:#ffffff;fill-opacity:1;stroke:none;stroke-width:2.5;stroke-miterlimit:4;stroke-dasharray:none;stroke-opacity:1"
       id="path64"
       sodipodi:nodetypes="ccccccsccscccccsccc" /><path
       id="path1052-5"
       style="display:inline;opacity:0.991014;fill:#ffffff;fill-opacity:1;stroke:none;stroke-width:0.661458;stroke-miterlimit:4;stroke-dasharray:none;stroke-opacity:1"
       d="m 10.029976,211.83684 v 6.68125 H 183.7547 v -6.68125 z"
       sodipodi:nodetypes="ccccc" /><path
       d="m 119.97668,174.02675 c -2.19976,1.47425 -2.18964,1.49308 -4.74286,3.29747 17.75565,17.71188 17.75448,17.71217 30.07723,30.12633 4.42763,0.0721 4.43107,0.0749 7.50445,0.0398 -18.62158,-18.90049 -18.61995,-18.89866 -32.83882,-33.4636 z"
       style="display:inline;opacity:0.991014;fill:#ffffff;fill-opacity:1;stroke:none;stroke-width:0.661458;stroke-miterlimit:4;stroke-dasharray:none;stroke-opacity:1"
       id="path1046-6"
       sodipodi:nodetypes="ccccc" /><path
       d="m 13.406516,125.95216 c -2.70923,0.0566 -3.5894397,2.70181 -2.45256,4.44624 35.094188,22.70815 35.085208,22.69746 59.914656,39.70869 l 8.405677,0.0207 c -28.646365,-19.43598 -28.644895,-19.43724 -65.600093,-44.173 -0.0912,-0.004 -0.18028,-0.004 -0.26768,-0.003 z"
       style="display:inline;opacity:0.991014;fill:#ffffff;fill-opacity:1;stroke:none;stroke-width:0.661458;stroke-miterlimit:4;stroke-dasharray:none;stroke-opacity:1"
       id="path1040-2"
       sodipodi:nodetypes="ccccccc" /><path
       d="m 181.49851,126.35679 c -27.71811,18.36435 -27.70846,18.37592 -70.87112,46.16617 -18.56206,-0.19491 -18.55692,-0.20143 -38.334578,-0.33021 -17.56645,17.39013 -17.57687,17.39095 -36.463392,35.29965 v 5.3e-4 c 2.64095,0.015 2.64125,0.0154 5.969147,0.0269 13.317215,-13.08489 13.317865,-13.08718 32.908042,-31.96239 18.360281,0.23854 19.947321,0.24043 37.828151,0.009 37.68026,-24.51514 37.6886,-24.51214 71.08868,-45.58533 0.70588,-1.21614 0.22377,-3.21988 -2.12493,-3.62459 z"
       style="display:inline;opacity:0.991014;fill:#ffffff;fill-opacity:1;stroke:none;stroke-width:0.661458;stroke-miterlimit:4;stroke-dasharray:none;stroke-opacity:1"
       id="path1034-9"
       sodipodi:nodetypes="sccccccccss" /><g
       id="dome"
       transform="translate(-423.46307,-42.819087)"
       style="opacity:0.996004;fill:#000000"
       inkscape:label="dome"><title
         id="title49">dome</title><g
         id="g34"
         transform="translate(0.04695616,2.1166667)"
         style="fill:#000000"><path
           d="m 517.47239,69.148745 c -0.27906,0.08526 -0.55224,0.182679 -0.81959,0.291455 -0.26735,0.108781 -0.52888,0.228835 -0.78393,0.359669 -0.25505,0.130834 -0.50353,0.272325 -0.74569,0.423746 -0.24217,0.151427 -0.47824,0.312629 -0.70694,0.483174 -0.22869,0.170553 -0.45043,0.350777 -0.66507,0.538986 -0.21464,0.188211 -0.42219,0.384707 -0.62218,0.589113 -0.20002,0.204404 -0.39245,0.416483 -0.57723,0.635619 -0.18479,0.219136 -0.36174,0.445077 -0.53072,0.677479 -0.16898,0.232397 -0.33007,0.471517 -0.48266,0.715717 -0.15258,0.244202 -0.2964,0.493738 -0.43201,0.748276 -0.13561,0.254537 -0.26281,0.513805 -0.38086,0.777213 -0.11805,0.263409 -0.2272,0.530685 -0.32711,0.801502 -0.0999,0.270815 -0.19064,0.545415 -0.27182,0.822172 -0.0812,0.276757 -0.15259,0.555924 -0.21445,0.837157 -0.0619,0.281234 -0.1141,0.56428 -0.15607,0.848527 -0.042,0.284247 -0.0736,0.569452 -0.0951,0.855245 -0.0215,0.285795 -0.0327,0.572473 -0.0331,0.858345 -4.1e-4,0.285877 0.01,0.57127 0.031,0.855763 0.0212,0.284493 0.0532,0.567912 0.0966,0.849561 0.0435,0.281647 0.0986,0.561372 0.16484,0.838708 0.0663,0.277334 0.14389,0.552167 0.23358,0.823722 0.0897,0.271558 0.19121,0.539769 0.30489,0.804085 0.11369,0.264319 0.2395,0.524703 0.37776,0.780314 0.13825,0.255612 0.28927,0.506453 0.45268,0.751893 0.16342,0.245438 0.33949,0.485532 0.52865,0.719336 0.18916,0.233805 0.3912,0.461426 0.60669,0.682128 0.21547,0.220705 0.44437,0.434652 0.68677,0.640789 0.2424,0.206137 0.49854,0.404688 0.76843,0.594796 0.2699,0.190106 0.55365,0.371539 0.85163,0.544153 0.29798,0.172612 0.60973,0.336238 0.93638,0.489892 0.32664,0.153649 0.66781,0.297236 1.02371,0.430464 0.35589,0.133228 0.72686,0.256082 1.11259,0.367419 0.0806,0.319209 0.14039,0.627832 0.18138,0.927076 0.041,0.299244 0.0629,0.589227 0.0682,0.87023 0.005,0.281004 -0.006,0.553033 -0.0326,0.817523 -0.0264,0.264486 -0.0677,0.521309 -0.12196,0.771012 -0.0543,0.2497 -0.12129,0.492514 -0.19946,0.729155 -0.0782,0.236638 -0.16742,0.467166 -0.26562,0.692462 -0.1629,0.373732 -0.36218,0.726024 -0.56586,1.07487 -0.44688,0.04431 -0.89092,0.09325 -1.32705,0.153998 -0.50202,0.06992 -0.99692,0.150505 -1.48467,0.24081 -0.48769,0.09031 -0.96795,0.1905 -1.44125,0.299723 -0.4733,0.10923 -0.9396,0.227293 -1.39836,0.353986 -0.45877,0.126688 -0.91033,0.261932 -1.35444,0.404625 -0.44412,0.142692 -0.88065,0.292869 -1.31,0.450101 -0.42935,0.157234 -0.8516,0.321651 -1.26607,0.491961 -0.41447,0.170307 -0.82113,0.346723 -1.2206,0.52865 -0.79895,0.363853 -1.56804,0.749285 -2.30632,1.150835 -0.73828,0.40155 -1.44566,0.8189 -2.12235,1.24643 -0.67669,0.42756 -1.32266,0.86555 -1.93683,1.30742 -0.61418,0.44187 -1.19697,0.88772 -1.7477,1.33222 -0.55074,0.44449 -1.06908,0.88748 -1.55546,1.32291 -0.48638,0.43543 -0.94056,0.86329 -1.36168,1.27796 -0.42108,0.41467 -0.80938,0.81616 -1.16426,1.19838 -0.3549,0.38221 -0.67651,0.74558 -0.96429,1.08365 -0.28778,0.33808 -0.54197,0.65104 -0.76171,0.93328 -0.21973,0.28224 -0.40475,0.53356 -0.55552,0.74827 -0.15077,0.21472 -0.26689,0.39264 -0.34778,0.52814 1.17469,-0.69736 2.23893,-1.30096 3.20756,-1.82211 0.9686,-0.52117 1.84149,-0.96 2.63291,-1.32706 0.39571,-0.18351 0.7713,-0.34901 1.12809,-0.49816 0.35682,-0.14914 0.69495,-0.28193 1.01648,-0.39946 0.32153,-0.11752 0.62637,-0.21984 0.91622,-0.3085 0.28986,-0.0887 0.56452,-0.16327 0.82631,-0.22583 0.26179,-0.0626 0.51043,-0.11323 0.74776,-0.15244 0.23733,-0.0392 0.46358,-0.0671 0.68006,-0.0858 0.21648,-0.0186 0.42347,-0.0276 0.6227,-0.0284 0.19923,-8.3e-4 0.3906,0.006 0.57619,0.0207 0.37119,0.0285 0.71851,0.084 1.05679,0.15606 0.33827,0.0721 0.66777,0.16057 1.002,0.25425 0.33423,0.0937 0.67346,0.19261 1.0325,0.28577 0.35904,0.0932 0.7376,0.18061 1.15031,0.25115 0.41272,0.0705 0.85972,0.12454 1.35496,0.15038 0.24762,0.0129 0.50716,0.0189 0.78083,0.0165 0.27367,-0.002 0.56123,-0.0136 0.86455,-0.0341 0.30332,-0.0205 0.62254,-0.0507 0.95911,-0.092 0.33658,-0.0413 0.69057,-0.0937 1.06402,-0.15864 0.37344,-0.0649 0.76637,-0.1423 1.18029,-0.23358 0.41392,-0.0913 0.8489,-0.19637 1.3069,-0.31678 0.458,-0.1204 0.93867,-0.25595 1.44435,-0.40824 0.50569,-0.15229 1.0362,-0.32104 1.59319,-0.50798 0.55698,-0.18694 1.14048,-0.39215 1.75234,-0.6165 0.6119,-0.22435 1.25248,-0.46826 1.92289,-0.73277 -0.54289,0.35018 -1.06624,0.67659 -1.57097,0.97978 -0.50473,0.30321 -0.99077,0.58351 -1.45986,0.84285 -0.46908,0.25933 -0.92106,0.49766 -1.35702,0.71623 -0.43596,0.21858 -0.85608,0.41749 -1.26142,0.59841 -0.40534,0.18094 -0.79582,0.34351 -1.17306,0.4899 -0.37724,0.14639 -0.7413,0.27623 -1.09295,0.39119 -0.35166,0.11496 -0.691,0.21515 -1.01958,0.30179 -0.32858,0.0866 -0.64644,0.15972 -0.95446,0.22118 -0.30803,0.0614 -0.6061,0.11104 -0.89607,0.15037 -0.28998,0.0393 -0.57202,0.0685 -0.84646,0.0889 -0.54889,0.0407 -1.06912,0.0466 -1.57097,0.03 -0.50184,-0.0166 -0.98494,-0.0559 -1.45986,-0.1049 -0.47489,-0.049 -0.94164,-0.10777 -1.40973,-0.16433 -0.46809,-0.0566 -0.93766,-0.11063 -1.41903,-0.14987 -0.48138,-0.0392 -0.97454,-0.064 -1.48932,-0.061 -0.25738,0.002 -0.52011,0.0102 -0.78961,0.0269 -0.26951,0.0167 -0.54579,0.0414 -0.82993,0.0765 -0.28414,0.035 -0.57617,0.0805 -0.87746,0.13694 -0.30129,0.0565 -0.61181,0.12415 -0.93276,0.20515 -0.32096,0.081 -0.65216,0.17502 -0.99529,0.28371 -0.34313,0.10869 -0.69827,0.2321 -1.06609,0.37155 -0.3678,0.13946 -0.74857,0.29537 -1.14359,0.46871 -0.39504,0.17333 -0.80413,0.36432 -1.22887,0.57464 -0.42474,0.21032 -0.86491,0.43998 -1.32188,0.6904 -0.45697,0.25042 -0.93094,0.5213 -1.42266,0.81493 -0.49171,0.29363 -1.00118,0.60987 -1.53013,0.94982 -0.52899,0.33995 -1.07715,0.70358 -1.6459,1.09295 -0.2474,0.39878 -0.48122,0.8018 -0.70177,1.20716 -0.22053,0.40537 -0.428,0.81311 -0.62321,1.22164 -0.19521,0.4085 -0.37789,0.81801 -0.54932,1.22628 -0.17144,0.40826 -0.33138,0.8155 -0.4806,1.22008 -0.14918,0.40458 -0.288,0.80658 -0.41651,1.20406 -0.1285,0.39748 -0.24669,0.79024 -0.35605,1.17719 -0.21871,0.77389 -0.40103,1.52326 -0.55242,2.23449 -0.15139,0.71123 -0.27203,1.38437 -0.36845,2.00556 -0.0964,0.62118 -0.1684,1.19071 -0.22221,1.69447 -0.0538,0.50375 -0.0896,0.94175 -0.11317,1.3007 -0.0236,0.35891 -0.0347,0.63853 -0.0403,0.82527 0.22135,-0.43622 0.44822,-0.85621 0.6811,-1.26091 0.23287,-0.4047 0.4717,-0.79373 0.71572,-1.16788 0.24402,-0.37418 0.49346,-0.73385 0.74827,-1.07849 0.25481,-0.34464 0.5151,-0.67454 0.78031,-0.99064 0.26522,-0.3161 0.53556,-0.61838 0.81081,-0.90692 0.27524,-0.28854 0.55535,-0.56329 0.84026,-0.82527 0.28488,-0.26198 0.57449,-0.51082 0.86868,-0.74725 0.29419,-0.2364 0.59297,-0.46048 0.89607,-0.6723 0.3031,-0.21182 0.61026,-0.41174 0.9219,-0.59997 0.31164,-0.18822 0.62743,-0.36458 0.94723,-0.5302 0.31981,-0.16562 0.64392,-0.32005 0.97152,-0.46405 0.3276,-0.14401 0.65872,-0.27763 0.99374,-0.40101 0.335,-0.12338 0.67389,-0.2368 1.01596,-0.34055 0.34204,-0.10375 0.68738,-0.19809 1.03611,-0.28319 0.34873,-0.0851 0.70072,-0.16096 1.05575,-0.22841 0.35503,-0.0674 0.71339,-0.12646 1.07435,-0.17725 0.72191,-0.10156 1.45495,-0.17051 2.19832,-0.21135 0.74336,-0.0408 1.49693,-0.0533 2.25877,-0.0413 0.76184,0.0119 1.5321,0.0481 2.30942,0.1049 0.77733,0.0568 1.56146,0.1341 2.35128,0.22789 0.78982,0.0938 1.58554,0.20428 2.38487,0.32711 0.79933,0.12284 1.60227,0.25809 2.40812,0.40205 1.61171,0.28791 3.23358,0.61047 4.85345,0.93534 1.61987,0.32487 3.23794,0.65237 4.84208,0.95085 0.80207,0.14924 1.60052,0.29091 2.39417,0.42168 0.79366,0.13076 1.58246,0.25065 2.36472,0.35501 0.78223,0.10437 1.55809,0.19351 2.32595,0.26355 0.76787,0.0701 1.52795,0.12102 2.27841,0.14883 0.7505,0.0278 1.49144,0.0325 2.22158,0.0103 0.7301,-0.0224 1.44918,-0.0715 2.15593,-0.15193 0.3534,-0.0402 0.7036,-0.0885 1.05059,-0.1447 0.34699,-0.0562 0.69072,-0.12057 1.03094,-0.19378 0.34022,-0.0732 0.6772,-0.1553 1.01028,-0.2465 0.33307,-0.0912 0.66249,-0.19162 0.98805,-0.30179 0.32556,-0.11017 0.64713,-0.23005 0.9648,-0.36018 0.31766,-0.13015 0.63111,-0.27009 0.94051,-0.42117 0.3094,-0.15109 0.61495,-0.31324 0.91571,-0.48627 0.30075,-0.17303 0.59708,-0.35697 0.88883,-0.55294 0.29175,-0.19596 0.57858,-0.40384 0.86093,-0.62373 0.28236,-0.21988 0.5599,-0.4518 0.83251,-0.6966 0.2726,-0.2448 0.54058,-0.50237 0.80305,-0.77308 0.26247,-0.27071 0.51956,-0.55454 0.77153,-0.85215 0.25197,-0.2976 0.4989,-0.60935 0.74001,-0.93482 0.24107,-0.32549 0.47657,-0.6647 0.70641,-1.01906 0.22984,-0.35436 0.45359,-0.72373 0.6718,-1.10795 0.21818,-0.38422 0.43097,-0.78329 0.63716,-1.19837 -0.13994,-0.32332 -0.31022,-0.67301 -0.51056,-1.04387 -0.20033,-0.37087 -0.43111,-0.76321 -0.69195,-1.17253 -0.26081,-0.40932 -0.55187,-0.83566 -0.87333,-1.27434 -0.32145,-0.43869 -0.67302,-0.88979 -1.05523,-1.34876 -0.38221,-0.45896 -0.79507,-0.92563 -1.23817,-1.39578 -0.44309,-0.47014 -0.91647,-0.94371 -1.42058,-1.41593 -0.50412,-0.47225 -1.03878,-0.94347 -1.60404,-1.4087 -0.56525,-0.46524 -1.16096,-0.92442 -1.78749,-1.37356 -0.62652,-0.44915 -1.28404,-0.8881 -1.97197,-1.31207 -0.68793,-0.42397 -1.40648,-0.83296 -2.15594,-1.22266 -0.37473,-0.19485 -0.75708,-0.384901 -1.14722,-0.569477 -0.39014,-0.184576 -0.78816,-0.363752 -1.19372,-0.536919 -0.40556,-0.173167 -0.81872,-0.34064 -1.23972,-0.501261 -0.421,-0.160623 -0.84977,-0.314531 -1.28623,-0.46147 -0.43645,-0.146939 -0.8808,-0.286462 -1.33273,-0.418579 -0.45193,-0.132123 -0.91131,-0.25694 -1.37873,-0.373105 -0.46742,-0.116165 -0.94283,-0.223904 -1.42575,-0.322977 -0.48292,-0.09908 -0.97382,-0.189418 -1.47226,-0.270267 -0.49845,-0.08085 -1.00426,-0.151934 -1.51826,-0.213426 -0.51397,-0.06148 -1.03574,-0.113011 -1.56528,-0.153995 -0.15986,-0.01237 -0.32545,-0.01693 -0.48679,-0.02739 -0.14201,-0.399479 -0.2686,-0.799145 -0.36793,-1.199928 -0.10395,-0.419415 -0.18126,-0.839613 -0.22376,-1.260903 -0.0213,-0.210651 -0.0336,-0.421836 -0.0367,-0.633037 -0.003,-0.211204 0.003,-0.422773 0.0202,-0.634588 0.017,-0.211812 0.0448,-0.42365 0.0837,-0.636137 0.0389,-0.212482 0.0892,-0.425508 0.15192,-0.63872 0.22648,-0.02563 0.45381,-0.06227 0.6811,-0.109038 0.22729,-0.04677 0.45441,-0.10373 0.6811,-0.170016 0.45337,-0.132561 0.90433,-0.302458 1.34668,-0.503327 0.44235,-0.200867 0.87617,-0.432681 1.29605,-0.688845 0.41988,-0.256175 0.82586,-0.536618 1.21181,-0.835094 0.38595,-0.298469 0.75187,-0.614799 1.09244,-0.942578 0.34057,-0.327777 0.65575,-0.667227 0.93948,-1.011307 0.28373,-0.344082 0.53594,-0.692864 0.75137,-1.040246 0.21544,-0.347385 0.394,-0.693256 0.52969,-1.030946 -0.38698,0.18202 -0.77122,0.349025 -1.15187,0.501779 -0.38065,0.152755 -0.75775,0.291248 -1.1312,0.415478 -0.37344,0.12423 -0.74309,0.234283 -1.10846,0.330729 -0.36536,0.09645 -0.72622,0.17916 -1.08262,0.248563 -0.3564,0.06941 -0.70815,0.125362 -1.05471,0.168466 -0.34656,0.0431 -0.68788,0.07341 -1.02371,0.09095 -0.33584,0.01755 -0.6664,0.02277 -0.99064,0.0155 -0.32425,-0.0073 -0.64218,-0.02705 -0.95395,-0.0584 -0.31177,-0.03135 -0.61728,-0.07451 -0.91571,-0.12919 -0.29841,-0.05468 -0.59017,-0.120642 -0.87436,-0.197919 -0.28419,-0.07728 -0.56084,-0.165971 -0.82992,-0.265102 -0.26908,-0.09913 -0.53033,-0.208936 -0.78342,-0.329179 -0.25309,-0.12024 -0.49809,-0.250579 -0.73432,-0.391189 -0.23623,-0.140613 -0.46364,-0.291417 -0.68213,-0.451652 -0.21848,-0.160242 -0.428,-0.329887 -0.62787,-0.509013 -0.19987,-0.179128 -0.39015,-0.367551 -0.5705,-0.564825 -0.18038,-0.197273 -0.3511,-0.403889 -0.51108,-0.618566 -0.16001,-0.214678 -0.3093,-0.437867 -0.44804,-0.669211 -0.13874,-0.231341 -0.26683,-0.470522 -0.38344,-0.717785 -0.11661,-0.247261 -0.22163,-0.502367 -0.31523,-0.76481 -0.0936,-0.262446 -0.17575,-0.532366 -0.24546,-0.809255 -0.0697,-0.276881 -0.12714,-0.560528 -0.17208,-0.851109 -0.0449,-0.290584 -0.0773,-0.58788 -0.0966,-0.891418 -0.0193,-0.303541 -0.0253,-0.613392 -0.0181,-0.929143 0.007,-0.315753 0.0279,-0.637571 0.0625,-0.9648 0.0346,-0.327229 0.0833,-0.659911 0.14624,-0.997871 0.0629,-0.337963 0.13997,-0.681442 0.23203,-1.029396 0.0921,-0.347948 0.19881,-0.700614 0.32091,-1.057815 0.12209,-0.357203 0.25937,-0.71846 0.41238,-1.084172 0.153,-0.36571 0.32164,-0.735494 0.50642,-1.108977 0.1848,-0.373473 0.38613,-0.750689 0.60358,-1.131197 0.21748,-0.380503 0.45128,-0.764559 0.70229,-1.151351 z m 34.83043,47.548525 c -0.008,0.0219 -0.0356,0.0991 -0.11886,0.27543 -0.26494,0.43317 -0.53613,0.84891 -0.81286,1.24799 -0.27678,0.39907 -0.55938,0.78161 -0.8475,1.14773 -0.28812,0.36612 -0.5815,0.71578 -0.88057,1.05006 -0.29903,0.33432 -0.60358,0.65344 -0.91312,0.95705 -0.30953,0.30361 -0.62403,0.59204 -0.94361,0.8661 -0.31958,0.27406 -0.64439,0.53364 -0.97358,0.77928 -0.3292,0.24564 -0.66313,0.47721 -1.00149,0.69557 -0.33836,0.21835 -0.68126,0.42326 -1.02837,0.61546 -0.34706,0.1922 -0.69829,0.3718 -1.05368,0.53899 -0.35537,0.16718 -0.71473,0.32179 -1.07797,0.46508 -0.36323,0.14331 -0.73009,0.27532 -1.1007,0.39584 -0.37065,0.12056 -0.74531,0.22977 -1.12293,0.32867 -0.37763,0.0989 -0.75841,0.18773 -1.14257,0.26613 -0.38416,0.0784 -0.77143,0.14657 -1.16169,0.20567 -0.39025,0.0591 -0.78334,0.10897 -1.17925,0.14986 -0.39591,0.0409 -0.79469,0.0724 -1.19579,0.0961 -0.80227,0.0476 -1.61449,0.0625 -2.435,0.0486 -0.8205,-0.014 -1.64937,-0.0561 -2.4846,-0.12247 -0.83523,-0.0664 -1.67691,-0.15685 -2.52336,-0.26666 -0.84645,-0.10977 -1.69763,-0.23931 -2.55178,-0.38343 -0.85416,-0.14413 -1.71152,-0.30295 -2.56987,-0.47233 -0.85835,-0.16937 -1.71756,-0.34929 -2.57659,-0.53485 -1.71807,-0.37111 -3.43435,-0.76527 -5.13405,-1.1467 -1.69973,-0.38142 -3.3831,-0.75 -5.03639,-1.06918 -0.82664,-0.15959 -1.64589,-0.30676 -2.45566,-0.43719 -0.80977,-0.13042 -1.60996,-0.24421 -2.39934,-0.33641 -0.78938,-0.0922 -1.5677,-0.16284 -2.33319,-0.20774 -0.76549,-0.0452 -1.51812,-0.0637 -2.25619,-0.0522 -0.36904,0.006 -0.73453,0.0188 -1.09606,0.0403 -0.36152,0.0215 -0.71923,0.0509 -1.0728,0.0894 -0.35358,0.0385 -0.70281,0.0856 -1.048,0.14211 -0.34519,0.0565 -0.68632,0.12274 -1.02268,0.19844 -0.33636,0.0757 -0.66821,0.16124 -0.99528,0.25734 -0.32711,0.096 -0.64948,0.20288 -0.96687,0.3204 -0.31739,0.11751 -0.62965,0.24538 -0.9369,0.3855 -0.30722,0.14011 -0.60924,0.29246 -0.90588,0.45631 -0.29667,0.16384 -0.58822,0.33993 -0.87385,0.52865 -0.28564,0.18869 -0.56557,0.38938 -0.83974,0.60409 -0.27418,0.2147 -0.54235,0.44289 -0.8046,0.68472 -0.26229,0.24184 -0.5185,0.49781 -0.76843,0.76791 -0.24994,0.2701 -0.49356,0.55419 -0.73071,0.85369 -0.23715,0.2995 -0.46801,0.61462 -0.69195,0.94465 -0.22393,0.33003 -0.44135,0.67494 -0.65164,1.03663 -0.21028,0.3617 -0.41359,0.7398 -0.60978,1.13429 -0.19618,0.3945 -0.38524,0.80561 -0.56689,1.23404 -0.18165,0.42844 -0.35577,0.87388 -0.52245,1.33738 -0.16667,0.4635 -0.3257,0.94519 -0.47697,1.44488 -0.15126,0.4997 -0.29454,1.01739 -0.42995,1.55442 0.0272,0.47766 0.072,0.9649 0.13281,1.4578 0.0608,0.49289 0.13731,0.99156 0.22841,1.49396 0.0911,0.5024 0.19664,1.00846 0.31471,1.51464 0.11807,0.50618 0.24897,1.01299 0.39067,1.51722 0.14171,0.50422 0.29431,1.00569 0.45631,1.50223 0.16199,0.49654 0.33315,0.98758 0.51211,1.47071 0.17895,0.48313 0.36554,0.95869 0.55811,1.42265 0.19255,0.46399 0.39141,0.91639 0.59427,1.35548 0.001,0.003 0.002,0.005 0.003,0.007 0.0807,-0.64871 0.17212,-1.27513 0.27389,-1.87999 0.10178,-0.60486 0.21415,-1.188 0.33641,-1.75028 0.12225,-0.56228 0.25476,-1.10372 0.39688,-1.6247 0.14213,-0.52098 0.29388,-1.02179 0.45527,-1.50275 0.16139,-0.48095 0.33206,-0.94221 0.51211,-1.38442 0.18006,-0.4422 0.3693,-0.86548 0.56741,-1.2702 0.19811,-0.40474 0.40508,-0.79109 0.62063,-1.15962 0.21556,-0.36852 0.4399,-0.71905 0.67231,-1.05265 0.2324,-0.33361 0.47329,-0.64985 0.72192,-0.94981 0.24864,-0.29995 0.5052,-0.58355 0.76946,-0.85111 0.26427,-0.26758 0.53617,-0.51955 0.81546,-0.75603 0.2793,-0.23648 0.56567,-0.45738 0.85938,-0.66404 0.29372,-0.20665 0.59474,-0.39912 0.90227,-0.57723 0.30753,-0.17811 0.62185,-0.34216 0.94257,-0.49299 0.32076,-0.15084 0.648,-0.28806 0.98134,-0.4129 0.33333,-0.12484 0.67268,-0.23732 1.01803,-0.33744 0.34534,-0.10011 0.69643,-0.18789 1.05316,-0.26459 0.35672,-0.0767 0.71925,-0.14187 1.08676,-0.19637 0.36752,-0.0545 0.74007,-0.0987 1.11776,-0.13229 0.37769,-0.0336 0.76046,-0.0568 1.14773,-0.0708 0.38726,-0.0139 0.77891,-0.0169 1.17512,-0.0129 0.39622,0.004 0.79689,0.0173 1.20148,0.0388 0.80919,0.0429 1.63475,0.1187 2.47375,0.22221 0.83899,0.10353 1.69143,0.23466 2.5554,0.38861 0.86396,0.15395 1.73902,0.33086 2.6231,0.52503 0.88408,0.19418 1.77698,0.40573 2.67632,0.62994 0.89935,0.22421 1.80531,0.46082 2.71508,0.70486 1.81955,0.48806 3.65537,1.00589 5.48752,1.51205 0.91608,0.25309 1.83103,0.5034 2.74299,0.7457 0.91194,0.2423 1.82087,0.47631 2.72386,0.69763 0.903,0.22132 1.80005,0.42997 2.68924,0.62012 0.88918,0.19014 1.77014,0.36181 2.64067,0.51056 0.87053,0.14876 1.7306,0.27435 2.57762,0.37155 0.84702,0.0972 1.68143,0.16614 2.5001,0.20154 0.40933,0.0174 0.81461,0.0271 1.21595,0.0274 0.40134,3e-4 0.7984,-0.009 1.19114,-0.0269 0.39273,-0.0183 0.78126,-0.046 1.16479,-0.0842 0.38353,-0.0382 0.76214,-0.0868 1.13585,-0.14624 0.37372,-0.0594 0.74257,-0.12997 1.10587,-0.21187 0.36329,-0.0819 0.72105,-0.17502 1.07332,-0.28061 0.35226,-0.1056 0.69909,-0.22337 1.03973,-0.35398 0.34063,-0.13061 0.67516,-0.27408 1.00356,-0.43098 0.3284,-0.15689 0.65028,-0.32714 0.96583,-0.5116 0.31556,-0.18444 0.62497,-0.38306 0.92708,-0.59634 0.3021,-0.2133 0.59716,-0.44133 0.88521,-0.68472 0.28805,-0.24342 0.56894,-0.50242 0.84233,-0.77721 0.27339,-0.27479 0.53925,-0.56536 0.79737,-0.87282 0.25812,-0.30745 0.50861,-0.63167 0.75086,-0.97306 0.24224,-0.34139 0.47598,-0.70033 0.70176,-1.07694 0.22577,-0.3766 0.44347,-0.77082 0.65216,-1.18391 -0.0338,-0.42872 -0.0769,-0.87255 -0.13074,-1.33015 -0.0538,-0.45762 -0.11854,-0.92903 -0.19534,-1.41283 -0.0768,-0.48379 -0.16591,-0.97998 -0.26872,-1.48725 -0.1028,-0.50725 -0.21909,-1.02588 -0.35088,-1.55391 -0.13178,-0.52802 -0.27912,-1.06572 -0.44287,-1.61179 -0.16374,-0.54607 -0.34391,-1.10051 -0.5426,-1.66191 -0.19869,-0.5614 -0.41555,-1.12975 -0.65216,-1.70377 -0.23656,-0.57387 -0.49304,-1.15309 -0.77049,-1.73685 z m -45.98479,16.88992 c -0.43728,-2e-4 -0.86667,0.009 -1.28829,0.0284 -0.42162,0.0192 -0.83518,0.0479 -1.24076,0.0868 -0.40555,0.0389 -0.80303,0.0879 -1.19217,0.14676 -0.38914,0.0589 -0.77026,0.12802 -1.14256,0.20722 -0.37233,0.0792 -0.73579,0.1684 -1.09089,0.2682 -0.35513,0.0998 -0.70169,0.21 -1.03922,0.33073 -0.33753,0.12074 -0.66643,0.25233 -0.98598,0.39429 -0.31956,0.14197 -0.63002,0.29435 -0.93121,0.45786 -0.3012,0.1635 -0.59296,0.33812 -0.8754,0.52348 -0.28245,0.18535 -0.55524,0.3816 -0.81856,0.58911 -0.26331,0.20751 -0.51688,0.42631 -0.76067,0.65629 -0.2438,0.22998 -0.47788,0.47124 -0.70177,0.72399 -0.22389,0.25275 -0.43771,0.51689 -0.6413,0.79271 -0.20361,0.27583 -0.39689,0.56327 -0.57981,0.86248 -0.18293,0.29922 -0.35542,0.61037 -0.51729,0.93328 -0.16185,0.32291 -0.31329,0.65767 -0.45371,1.00459 -0.14042,0.34692 -0.27002,0.70571 -0.38861,1.07694 -0.11859,0.37123 -0.22606,0.75498 -0.32246,1.15083 -0.0964,0.39585 -0.18148,0.80396 -0.25528,1.22473 -0.0738,0.42078 -0.13627,0.85417 -0.18707,1.30018 -0.0508,0.44601 -0.0899,0.90457 -0.11731,1.37615 -0.0274,0.47153 -0.0425,0.95573 -0.0465,1.45314 -0.004,0.4974 0.005,1.00814 0.0253,1.53168 0.0205,0.52356 0.0531,1.06021 0.0982,1.61024 0.16626,0.27538 0.3773,0.59222 0.62787,0.94103 0.25057,0.34881 0.54053,0.72951 0.86506,1.13327 0.32454,0.40373 0.68362,0.83051 1.07177,1.27072 0.38815,0.4402 0.80554,0.89369 1.24695,1.35185 0.44142,0.45817 0.9068,0.92111 1.39113,1.37873 0.48434,0.45763 0.9874,0.91016 1.5043,1.34876 0.51691,0.43859 1.04734,0.86293 1.58647,1.264 0.53913,0.40107 1.08714,0.77892 1.63814,1.12396 0.15925,-0.2412 0.33145,-0.48459 0.51677,-0.72863 0.18532,-0.24405 0.3834,-0.48867 0.59376,-0.73381 0.21036,-0.24514 0.43328,-0.49036 0.66766,-0.73484 0.23438,-0.24448 0.48058,-0.48863 0.73794,-0.7307 0.25736,-0.24208 0.52581,-0.48245 0.80512,-0.72037 0.2793,-0.23793 0.56949,-0.47337 0.86971,-0.70539 0.30022,-0.23201 0.6106,-0.46034 0.93069,-0.68471 0.32011,-0.22436 0.64963,-0.44443 0.98858,-0.65939 0.33895,-0.21496 0.68708,-0.42509 1.04386,-0.6289 0.35678,-0.20381 0.72248,-0.40131 1.09606,-0.59221 0.37356,-0.19091 0.75529,-0.37514 1.14463,-0.55139 0.38933,-0.17625 0.78604,-0.34453 1.19011,-0.50436 0.40406,-0.15986 0.81524,-0.31099 1.233,-0.45269 0.41775,-0.1417 0.84236,-0.27404 1.27279,-0.39584 0.43042,-0.1218 0.8669,-0.23316 1.30896,-0.33331 0.44206,-0.10016 0.88938,-0.18934 1.34204,-0.26614 0.45266,-0.0768 0.91029,-0.14115 1.37252,-0.19275 0.46223,-0.0516 0.92915,-0.09 1.39992,-0.11472 0.47077,-0.025 0.94541,-0.036 1.42369,-0.032 0.47825,0.004 0.96012,0.023 1.44487,0.0574 0.48475,0.0343 0.97276,0.0844 1.46296,0.15089 0.49019,0.0665 0.98282,0.14922 1.47743,0.2496 0.49461,0.10038 0.9908,0.21796 1.4888,0.35399 0.49798,0.13602 0.99773,0.29063 1.4981,0.46405 0.50031,0.17342 1.0016,0.3657 1.50326,0.57826 0.50166,0.21256 1.00339,0.44522 1.50534,0.69866 0.50194,0.25346 1.00413,0.52763 1.50533,0.82373 0.5012,0.2961 1.00178,0.61397 1.5012,0.95446 0.49943,0.34049 0.99735,0.70374 1.49397,1.09037 0.49661,0.38664 0.99189,0.79693 1.48466,1.23145 0.49278,0.43453 0.98332,0.89353 1.47123,1.3777 0.4879,0.48416 0.9732,0.99354 1.45521,1.5291 0.48407,-0.31707 1.01147,-0.69346 1.54409,-1.09709 0.53262,-0.40363 1.0704,-0.83443 1.5751,-1.25987 0.5047,-0.42544 0.97635,-0.84584 1.37666,-1.22835 0.4003,-0.38251 0.72934,-0.72715 0.94878,-1.00201 -0.11233,-0.26542 -0.24419,-0.53691 -0.39378,-0.81286 -0.14958,-0.27598 -0.31686,-0.55659 -0.50074,-0.84026 -0.18389,-0.28368 -0.38423,-0.5703 -0.59945,-0.85887 -0.21522,-0.28856 -0.44577,-0.57905 -0.68936,-0.86971 -0.2436,-0.29066 -0.50046,-0.58185 -0.76947,-0.87178 -0.26898,-0.28994 -0.54984,-0.57866 -0.84129,-0.86507 -0.29145,-0.28638 -0.5934,-0.57001 -0.90434,-0.85007 -0.31091,-0.28006 -0.63114,-0.55644 -0.95859,-0.82734 -0.32746,-0.2709 -0.66203,-0.53637 -1.00304,-0.7953 -0.34101,-0.25894 -0.68813,-0.51135 -1.03973,-0.75551 -0.35161,-0.24416 -0.70789,-0.48037 -1.06712,-0.70694 -0.35924,-0.22655 -0.72182,-0.4434 -1.08572,-0.64957 -0.36391,-0.20617 -0.72942,-0.4015 -1.09503,-0.58446 -0.3656,-0.18296 -0.73119,-0.35362 -1.09554,-0.51056 -0.36434,-0.15694 -0.72715,-0.30029 -1.08727,-0.4284 -0.36012,-0.12811 -0.71728,-0.24095 -1.07022,-0.33745 0.59468,0.009 1.16328,0.0318 1.70842,0.0677 0.54514,0.0359 1.06658,0.0847 1.5658,0.14676 0.49922,0.0621 0.97661,0.13729 1.43351,0.22479 0.45688,0.0875 0.89335,0.18759 1.31154,0.29973 0.4182,0.11213 0.81787,0.23603 1.20096,0.37207 0.3831,0.13603 0.74962,0.28419 1.10123,0.44338 0.3516,0.15919 0.68861,0.32949 1.01234,0.51108 0.32373,0.18159 0.63433,0.3745 0.93379,0.57774 0.29947,0.20324 0.58781,0.41665 0.86662,0.64079 0.27881,0.22414 0.548,0.45852 0.80977,0.7028 0.26176,0.24428 0.51596,0.49855 0.76429,0.76223 0.24833,0.26367 0.49065,0.53675 0.72915,0.81907 0.477,0.56463 0.93797,1.16625 1.39734,1.80092 0.45935,0.63468 0.91744,1.30272 1.38802,2.00143 0.38363,-0.44723 0.78576,-0.94351 1.19735,-1.48983 0.41159,-0.54632 0.83221,-1.14279 1.25367,-1.79007 0.42146,-0.64729 0.84354,-1.34537 1.25677,-2.09548 0.20662,-0.37506 0.4112,-0.76316 0.61236,-1.16427 0.20118,-0.40112 0.39876,-0.81541 0.59222,-1.24282 0.19345,-0.42741 0.38289,-0.86795 0.56637,-1.32188 0.18348,-0.45394 0.36102,-0.9213 0.53227,-1.40199 0.17123,-0.48067 0.33624,-0.9749 0.49299,-1.48259 0.15675,-0.50769 0.30546,-1.02881 0.44545,-1.56373 0.13999,-0.53491 0.27125,-1.08355 0.39223,-1.64589 0.12095,-0.56238 0.23154,-1.13851 0.33124,-1.72858 0.0997,-0.59007 0.18848,-1.19431 0.26458,-1.81229 0.0761,-0.618 0.13987,-1.24985 0.19018,-1.89601 -0.25477,0.29884 -0.51773,0.58301 -0.78859,0.85318 -0.27086,0.27016 -0.5499,0.52641 -0.83612,0.76894 -0.28623,0.24253 -0.57973,0.47137 -0.88057,0.6873 -0.30083,0.21593 -0.60877,0.41889 -0.92346,0.60926 -0.31468,0.19037 -0.63598,0.36849 -0.96376,0.53434 -0.32778,0.16584 -0.66188,0.31962 -1.00201,0.46199 -0.34012,0.14233 -0.68647,0.27284 -1.03818,0.39273 -0.35171,0.11991 -0.70923,0.22913 -1.07177,0.32763 -0.36254,0.0985 -0.73015,0.18649 -1.10277,0.26459 -0.37262,0.0781 -0.75029,0.14635 -1.13223,0.20515 -0.38194,0.0588 -0.76808,0.10833 -1.15859,0.14883 -0.39051,0.0405 -0.78507,0.0719 -1.18339,0.0951 -0.39832,0.0233 -0.80023,0.0379 -1.20561,0.045 -0.40537,0.007 -0.81408,0.006 -1.22577,-0.002 -0.82332,-0.0164 -1.65868,-0.0619 -2.50268,-0.13281 -0.84404,-0.0709 -1.69725,-0.16713 -2.55592,-0.28422 -0.85868,-0.11709 -1.72275,-0.25479 -2.59002,-0.4098 -0.86728,-0.155 -1.73776,-0.32698 -2.6076,-0.51159 -0.86983,-0.18461 -1.73917,-0.38216 -2.60552,-0.58808 -1.73271,-0.41184 -3.45254,-0.85809 -5.13509,-1.30535 -1.68255,-0.44725 -3.3278,-0.89528 -4.91184,-1.31155 -1.09738,-0.28834 -2.17006,-0.54319 -3.21634,-0.76326 -1.04632,-0.22006 -2.06659,-0.4057 -3.05873,-0.555 -0.49607,-0.0746 -0.98515,-0.13987 -1.4671,-0.19637 -0.48195,-0.0565 -0.95675,-0.10411 -1.4242,-0.14211 -0.46745,-0.038 -0.9272,-0.0665 -1.37976,-0.0858 -0.45256,-0.0193 -0.89804,-0.0293 -1.33532,-0.0295 z"
           style="fill:#ffffff;stroke-width:0.661458"
           id="path47" /><path
           d="m 506.31803,133.58719 c -0.43728,-1.9e-4 -0.86667,0.009 -1.28829,0.0284 -0.42162,0.0192 -0.83517,0.0479 -1.24075,0.0868 -0.40557,0.0389 -0.80304,0.0879 -1.19218,0.14676 -0.38914,0.0589 -0.77025,0.12803 -1.14257,0.20722 -0.37233,0.0792 -0.73578,0.16839 -1.09088,0.2682 -0.35512,0.0998 -0.70169,0.21 -1.03922,0.33073 -0.33753,0.12074 -0.66643,0.25233 -0.98598,0.39429 -0.31956,0.14197 -0.63002,0.29435 -0.93121,0.45786 -0.3012,0.1635 -0.59296,0.33812 -0.8754,0.52348 -0.28245,0.18535 -0.55524,0.3816 -0.81856,0.58911 -0.26331,0.20751 -0.51688,0.42631 -0.76067,0.65629 -0.2438,0.22998 -0.47788,0.47124 -0.70177,0.72399 -0.22389,0.25275 -0.43771,0.51689 -0.6413,0.79271 -0.20361,0.27583 -0.39689,0.56327 -0.57981,0.86248 -0.18293,0.29922 -0.35542,0.61037 -0.51729,0.93328 -0.16186,0.32291 -0.31329,0.65767 -0.45371,1.00459 -0.14042,0.34692 -0.27002,0.70571 -0.38861,1.07694 -0.11859,0.37123 -0.22609,0.75498 -0.32246,1.15083 -0.0964,0.39585 -0.18152,0.80396 -0.25528,1.22473 -0.0738,0.42078 -0.1363,0.85417 -0.18707,1.30018 -0.0508,0.44601 -0.0899,0.90458 -0.11731,1.37614 -0.0274,0.47155 -0.0429,0.95574 -0.0465,1.45315 -0.004,0.4974 0.005,1.00814 0.0253,1.53169 0.0205,0.52356 0.0531,1.0602 0.0982,1.61023 0.16626,0.27538 0.3773,0.59222 0.62787,0.94103 0.25057,0.34881 0.54053,0.72951 0.86506,1.13326 0.32454,0.40375 0.68362,0.83052 1.07177,1.27073 0.38815,0.4402 0.80554,0.89369 1.24695,1.35185 0.44142,0.45817 0.9068,0.92111 1.39113,1.37873 0.48434,0.45763 0.9874,0.91016 1.5043,1.34876 0.51691,0.43859 1.04734,0.86293 1.58647,1.264 0.53913,0.40107 1.08714,0.77891 1.63814,1.12396 0.15925,-0.2412 0.33145,-0.48459 0.51677,-0.72863 0.18532,-0.24405 0.3834,-0.48867 0.59376,-0.73381 0.21036,-0.24514 0.43328,-0.49036 0.66766,-0.73484 0.23438,-0.24448 0.48058,-0.48863 0.73794,-0.7307 0.25736,-0.24208 0.52581,-0.48245 0.80512,-0.72037 0.2793,-0.23793 0.56949,-0.47337 0.86971,-0.70539 0.30022,-0.23201 0.6106,-0.46034 0.93069,-0.68471 0.32011,-0.22436 0.64962,-0.44443 0.98857,-0.65939 0.33896,-0.21496 0.68709,-0.42509 1.04387,-0.6289 0.35678,-0.20381 0.72248,-0.40131 1.09606,-0.59221 0.37357,-0.19091 0.75529,-0.37514 1.14463,-0.55139 0.38933,-0.17625 0.78604,-0.34452 1.19011,-0.50436 0.40406,-0.15986 0.81524,-0.31099 1.233,-0.45269 0.41775,-0.1417 0.84236,-0.27404 1.27279,-0.39584 0.43042,-0.1218 0.8669,-0.23316 1.30896,-0.33331 0.44206,-0.10016 0.88938,-0.18938 1.34204,-0.26614 0.45266,-0.0768 0.91029,-0.14114 1.37252,-0.19275 0.46223,-0.0516 0.92915,-0.09 1.39992,-0.11472 0.47077,-0.0247 0.94541,-0.036 1.42368,-0.032 0.47827,0.004 0.96013,0.023 1.44488,0.0574 0.48475,0.0343 0.97276,0.0844 1.46296,0.1509 0.49019,0.0665 0.98282,0.14921 1.47743,0.24959 0.49461,0.10038 0.9908,0.21796 1.48879,0.35399 0.49798,0.13602 0.99775,0.29063 1.4981,0.46405 0.50033,0.17342 1.00161,0.3657 1.50327,0.57826 0.50166,0.21256 1.00339,0.44522 1.50534,0.69866 0.50194,0.25346 1.00413,0.52763 1.50533,0.82373 0.5012,0.2961 1.00178,0.61397 1.5012,0.95446 0.49943,0.34049 0.99735,0.70374 1.49397,1.09037 0.49661,0.38664 0.99189,0.79693 1.48466,1.23145 0.49278,0.43453 0.98332,0.89353 1.47123,1.3777 0.4879,0.48416 0.9732,0.99354 1.45521,1.5291 0.48407,-0.31707 1.01147,-0.69346 1.54409,-1.09709 0.53262,-0.40363 1.0704,-0.83443 1.5751,-1.25987 0.5047,-0.42544 0.97635,-0.84584 1.37666,-1.22835 0.4003,-0.38251 0.72934,-0.72716 0.94878,-1.002 -0.11233,-0.26544 -0.24419,-0.53692 -0.39378,-0.81287 -0.14958,-0.27597 -0.31686,-0.55659 -0.50074,-0.84026 -0.18389,-0.28368 -0.38423,-0.5703 -0.59945,-0.85887 -0.21522,-0.28857 -0.44577,-0.57905 -0.68936,-0.86971 -0.2436,-0.29066 -0.50046,-0.58185 -0.76947,-0.87178 -0.269,-0.28994 -0.54984,-0.57866 -0.84129,-0.86507 -0.29145,-0.28639 -0.5934,-0.57001 -0.90434,-0.85007 -0.31092,-0.28006 -0.63114,-0.55644 -0.95859,-0.82734 -0.32746,-0.2709 -0.66203,-0.53637 -1.00304,-0.7953 -0.34101,-0.25894 -0.68813,-0.51135 -1.03973,-0.75551 -0.35161,-0.24416 -0.70789,-0.48037 -1.06712,-0.70694 -0.35924,-0.22657 -0.72182,-0.4434 -1.08572,-0.64957 -0.36391,-0.20617 -0.72942,-0.4015 -1.09503,-0.58446 -0.3656,-0.18296 -0.73119,-0.35362 -1.09554,-0.51056 -0.36434,-0.15694 -0.72715,-0.30029 -1.08727,-0.4284 -0.36012,-0.12811 -0.71728,-0.24098 -1.07022,-0.33745 0.59468,0.009 1.16329,0.0318 1.70843,0.0677 0.54514,0.0359 1.06657,0.0847 1.56579,0.14676 0.49922,0.0621 0.97661,0.13731 1.43351,0.22479 0.45688,0.0875 0.89335,0.18759 1.31154,0.29973 0.4182,0.11213 0.81787,0.23603 1.20096,0.37207 0.3831,0.13603 0.74962,0.28419 1.10123,0.44338 0.3516,0.15919 0.68861,0.32949 1.01234,0.51108 0.32373,0.18159 0.63433,0.3745 0.93379,0.57774 0.29947,0.20324 0.58781,0.41665 0.86662,0.64079 0.27881,0.22414 0.548,0.45852 0.80977,0.7028 0.26176,0.24428 0.51596,0.49855 0.76429,0.76223 0.24833,0.26367 0.49066,0.53675 0.72916,0.81907 0.477,0.56463 0.93796,1.16625 1.39733,1.80092 0.45936,0.63468 0.91742,1.30272 1.38802,2.00143 0.38363,-0.44723 0.78576,-0.94351 1.19735,-1.48983 0.41159,-0.54632 0.83221,-1.14279 1.25367,-1.79007 0.42146,-0.64729 0.84354,-1.34537 1.25677,-2.09548 0.20662,-0.37506 0.4112,-0.76316 0.61236,-1.16427 0.20117,-0.40112 0.39876,-0.81541 0.59222,-1.24282 0.19345,-0.42741 0.38289,-0.86795 0.56637,-1.32188 0.18348,-0.45394 0.36102,-0.92129 0.53227,-1.40198 0.17124,-0.48069 0.33624,-0.97491 0.49299,-1.4826 0.15675,-0.50769 0.30546,-1.02881 0.44545,-1.56373 0.13999,-0.53491 0.27126,-1.08353 0.39223,-1.64589 0.12096,-0.56238 0.23156,-1.13851 0.33124,-1.72858 0.0997,-0.59007 0.18845,-1.1943 0.26458,-1.81229 0.0761,-0.618 0.13983,-1.24985 0.19017,-1.89601 -0.25475,0.29884 -0.51772,0.58301 -0.78858,0.85318 -0.27086,0.27016 -0.5499,0.52641 -0.83612,0.76894 -0.28623,0.24253 -0.57973,0.47137 -0.88057,0.6873 -0.30083,0.21593 -0.60877,0.41889 -0.92346,0.60926 -0.31468,0.19037 -0.63598,0.36849 -0.96376,0.53434 -0.32778,0.16584 -0.66188,0.31962 -1.00201,0.46198 -0.34012,0.14235 -0.68647,0.27285 -1.03818,0.39275 -0.35171,0.11991 -0.70923,0.22913 -1.07177,0.32762 -0.36254,0.0985 -0.73015,0.18647 -1.10277,0.26459 -0.37262,0.0781 -0.75029,0.14637 -1.13223,0.20515 -0.38194,0.0588 -0.76808,0.10835 -1.15859,0.14883 -0.39051,0.0405 -0.78507,0.0719 -1.18339,0.0951 -0.39832,0.0232 -0.80023,0.0378 -1.20561,0.045 -0.40537,0.007 -0.81408,0.006 -1.22577,-0.002 -0.82334,-0.0164 -1.65866,-0.0619 -2.50268,-0.13281 -0.84404,-0.0709 -1.69725,-0.16713 -2.55592,-0.28422 -0.85868,-0.11709 -1.72275,-0.25479 -2.59002,-0.4098 -0.86728,-0.155 -1.73776,-0.32698 -2.6076,-0.51159 -0.86983,-0.18461 -1.73917,-0.38216 -2.60552,-0.58808 -1.73271,-0.41184 -3.45254,-0.85809 -5.13509,-1.30535 -1.68255,-0.44725 -3.32778,-0.89529 -4.91184,-1.31155 -1.09738,-0.28835 -2.17005,-0.54319 -3.21635,-0.76326 -1.0463,-0.22006 -2.06658,-0.4057 -3.05872,-0.555 -0.49607,-0.0746 -0.98515,-0.13988 -1.4671,-0.19637 -0.48195,-0.0565 -0.95675,-0.10408 -1.4242,-0.14211 -0.46745,-0.038 -0.9272,-0.0665 -1.37976,-0.0858 -0.45256,-0.0193 -0.89804,-0.0293 -1.33532,-0.0295 z"
           style="fill:#ffffff;stroke-width:0.661458"
           id="path42" /></g></g><path
       d="m 99.229602,32.327743 1.123448,3.456119 3.63388,-0.03307 -2.93987,2.136304 1.15497,3.445785 -2.940389,-2.135787 -2.920235,2.163175 1.122412,-3.456636 -2.959509,-2.108916 3.633887,-5.16e-4 z"
       style="fill:#ffffff;stroke-linecap:round;stroke-linejoin:round"
       id="star"
       inkscape:label="star"><title
         id="title48">star</title></path></g></svg>
